<svg width="16" height="16" viewBox="0 0 16 16" fill="none" xmlns="http://www.w3.org/2000/svg">
<path d="M7.00762 2.44343C7.13268 2.30376 7.28579 2.19203 7.45695 2.11554C7.62811 2.03905 7.81348 1.99951 8.00095 1.99951C8.18843 1.99951 8.3738 2.03905 8.54496 2.11554C8.71612 2.19203 8.86923 2.30376 8.99429 2.44343L9.46095 2.96476C9.59433 3.11376 9.75951 3.23085 9.94426 3.30736C10.129 3.38387 10.3286 3.41784 10.5283 3.40676L11.2283 3.36809C11.4155 3.35777 11.6028 3.38706 11.778 3.45404C11.9531 3.52102 12.1121 3.62419 12.2447 3.75682C12.3773 3.88944 12.4804 4.04854 12.5473 4.22371C12.6142 4.39889 12.6434 4.5862 12.633 4.77343L12.5943 5.47276C12.5833 5.67231 12.6173 5.87178 12.6938 6.05642C12.7703 6.24105 12.8874 6.40612 13.0363 6.53943L13.5576 7.00609C13.6974 7.13115 13.8092 7.2843 13.8858 7.45552C13.9623 7.62675 14.0019 7.8122 14.0019 7.99976C14.0019 8.18732 13.9623 8.37277 13.8858 8.54399C13.8092 8.71522 13.6974 8.86836 13.5576 8.99343L13.0363 9.46009C12.8873 9.59347 12.7702 9.75865 12.6937 9.9434C12.6172 10.1282 12.5832 10.3278 12.5943 10.5274L12.633 11.2274C12.6433 11.4147 12.614 11.602 12.547 11.7771C12.48 11.9522 12.3769 12.1113 12.2442 12.2438C12.1116 12.3764 11.9525 12.4795 11.7773 12.5464C11.6022 12.6133 11.4148 12.6425 11.2276 12.6321L10.5283 12.5934C10.3287 12.5824 10.1293 12.6165 9.94463 12.693C9.75999 12.7695 9.59492 12.8865 9.46162 13.0354L8.99495 13.5568C8.86989 13.6965 8.71675 13.8084 8.54552 13.8849C8.3743 13.9615 8.18885 14.001 8.00129 14.001C7.81373 14.001 7.62828 13.9615 7.45705 13.8849C7.28583 13.8084 7.13268 13.6965 7.00762 13.5568L6.54095 13.0354C6.40758 12.8864 6.2424 12.7693 6.05764 12.6928C5.87288 12.6163 5.67328 12.5823 5.47362 12.5934L4.77362 12.6321C4.58639 12.6424 4.39909 12.6131 4.22395 12.5461C4.0488 12.4792 3.88976 12.376 3.7572 12.2434C3.62464 12.1107 3.52154 11.9516 3.45464 11.7765C3.38774 11.6013 3.35854 11.414 3.36895 11.2268L3.40762 10.5274C3.4186 10.3279 3.38458 10.1284 3.30807 9.94377C3.23156 9.75913 3.11453 9.59406 2.96562 9.46076L2.44429 8.99409C2.30451 8.86903 2.19269 8.71588 2.11613 8.54466C2.03957 8.37344 2 8.18799 2 8.00043C2 7.81287 2.03957 7.62742 2.11613 7.45619C2.19269 7.28497 2.30451 7.13182 2.44429 7.00676L2.96562 6.54009C3.11462 6.40672 3.23171 6.24154 3.30822 6.05678C3.38473 5.87202 3.4187 5.67242 3.40762 5.47276L3.36895 4.77276C3.35873 4.58558 3.38809 4.39836 3.45511 4.22329C3.52214 4.04823 3.62533 3.88927 3.75794 3.75678C3.89055 3.62429 4.04961 3.52126 4.22474 3.4544C4.39987 3.38754 4.58712 3.35836 4.77429 3.36876L5.47362 3.40743C5.67317 3.4184 5.87265 3.38438 6.05728 3.30787C6.24191 3.23137 6.40698 3.11433 6.54029 2.96543L7.00762 2.44343Z" stroke="#03AF44" stroke-width="1.25"/>
<path d="M6.33398 6.3335H6.34065V6.34016H6.33398V6.3335ZM9.66732 9.66683H9.67398V9.6735H9.66732V9.66683Z" stroke="#03AF44" stroke-width="1.875" stroke-linejoin="round"/>
<path d="M10 6L6 10" stroke="#03AF44" stroke-width="1.25" stroke-linecap="round" stroke-linejoin="round"/>
</svg>
